<svg width="186" height="31" viewBox="0 0 186 31" fill="none" xmlns="http://www.w3.org/2000/svg">
<path d="M1.04 24C0.826667 24 0.634667 23.9253 0.464 23.776C0.314667 23.6053 0.24 23.4133 0.24 23.2V2.4C0.24 2.16533 0.314667 1.97333 0.464 1.824C0.634667 1.67467 0.826667 1.6 1.04 1.6H4.432C4.96533 1.6 5.328 1.80267 5.52 2.208L13.328 14.496V2.4C13.328 2.16533 13.4027 1.97333 13.552 1.824C13.7227 1.67467 13.9147 1.6 14.128 1.6H17.968C18.2027 1.6 18.3947 1.67467 18.544 1.824C18.6933 1.97333 18.768 2.16533 18.768 2.4V23.168C18.768 23.4027 18.6933 23.6053 18.544 23.776C18.3947 23.9253 18.2027 24 17.968 24H14.544C14.0747 24 13.7227 23.7973 13.488 23.392L5.68 11.552V23.2C5.68 23.4133 5.60533 23.6053 5.456 23.776C5.30667 23.9253 5.11467 24 4.88 24H1.04ZM23.656 4.96C23.4213 4.96 23.2293 4.88533 23.08 4.736C22.9307 4.58667 22.856 4.39467 22.856 4.16V1.28C22.856 1.04533 22.9307 0.853333 23.08 0.703999C23.2293 0.554666 23.4213 0.48 23.656 0.48H27.496C27.7307 0.48 27.9227 0.554666 28.072 0.703999C28.2213 0.853333 28.296 1.04533 28.296 1.28V4.16C28.296 4.39467 28.2213 4.58667 28.072 4.736C27.9227 4.88533 27.7307 4.96 27.496 4.96H23.656ZM23.688 24C23.4533 24 23.2613 23.9253 23.112 23.776C22.9627 23.6267 22.888 23.4347 22.888 23.2V8.16C22.888 7.92533 22.9627 7.73333 23.112 7.584C23.2613 7.43467 23.4533 7.36 23.688 7.36H27.464C27.6987 7.36 27.8907 7.43467 28.04 7.584C28.1893 7.73333 28.264 7.92533 28.264 8.16V23.2C28.264 23.4133 28.1893 23.6053 28.04 23.776C27.8907 23.9253 27.6987 24 27.464 24H23.688ZM39.9163 24.32C37.2709 24.32 35.2336 23.6907 33.8043 22.432C32.3749 21.1733 31.5963 19.4027 31.4683 17.12C31.4469 16.8427 31.4363 16.3627 31.4363 15.68C31.4363 14.9973 31.4469 14.5173 31.4683 14.24C31.5963 11.9787 32.3963 10.2187 33.8683 8.96C35.3403 7.68 37.3563 7.04 39.9163 7.04C42.4976 7.04 44.5243 7.68 45.9963 8.96C47.4683 10.2187 48.2683 11.9787 48.3963 14.24C48.4176 14.5173 48.4283 14.9973 48.4283 15.68C48.4283 16.3627 48.4176 16.8427 48.3963 17.12C48.2683 19.4027 47.4896 21.1733 46.0603 22.432C44.6309 23.6907 42.5829 24.32 39.9163 24.32ZM39.9163 20.416C40.8549 20.416 41.5483 20.1387 41.9963 19.584C42.4443 19.008 42.7003 18.1333 42.7643 16.96C42.7856 16.7467 42.7963 16.32 42.7963 15.68C42.7963 15.04 42.7856 14.6133 42.7643 14.4C42.7003 13.248 42.4336 12.384 41.9643 11.808C41.5163 11.232 40.8336 10.944 39.9163 10.944C38.1456 10.944 37.2069 12.096 37.1003 14.4L37.0683 15.68L37.1003 16.96C37.1429 18.1333 37.3883 19.008 37.8363 19.584C38.3056 20.1387 38.9989 20.416 39.9163 20.416ZM52.4068 24C52.1934 24 52.0014 23.9253 51.8307 23.776C51.6814 23.6053 51.6068 23.4133 51.6068 23.2V2.08C51.6068 1.84533 51.6814 1.65333 51.8307 1.504C52.0014 1.35467 52.1934 1.28 52.4068 1.28H56.1828C56.4174 1.28 56.6094 1.35467 56.7588 1.504C56.9081 1.65333 56.9828 1.84533 56.9828 2.08V23.2C56.9828 23.4347 56.9081 23.6267 56.7588 23.776C56.6094 23.9253 56.4174 24 56.1828 24H52.4068ZM63.867 30.08C63.675 30.08 63.515 30.016 63.387 29.888C63.259 29.76 63.195 29.6 63.195 29.408C63.195 29.2587 63.227 29.12 63.291 28.992L65.787 22.976L59.643 8.448C59.579 8.27733 59.547 8.14933 59.547 8.064C59.5897 7.872 59.675 7.712 59.803 7.584C59.931 7.43467 60.091 7.36 60.283 7.36H63.931C64.379 7.36 64.6883 7.584 64.859 8.032L68.507 17.344L72.251 8.032C72.4643 7.584 72.7843 7.36 73.211 7.36H76.795C76.987 7.36 77.147 7.43467 77.275 7.584C77.4243 7.712 77.499 7.86133 77.499 8.032C77.499 8.11733 77.467 8.256 77.403 8.448L68.347 29.408C68.1763 29.856 67.8563 30.08 67.387 30.08H63.867ZM88.5608 24.32C86.5341 24.32 84.7954 24.0213 83.3448 23.424C81.8941 22.8267 80.7954 22.048 80.0488 21.088C79.3234 20.1067 78.9394 19.04 78.8968 17.888C78.8968 17.7173 78.9608 17.568 79.0888 17.44C79.2381 17.2907 79.4088 17.216 79.6008 17.216H83.6328C83.8888 17.216 84.0914 17.2693 84.2408 17.376C84.4114 17.4613 84.5821 17.6 84.7528 17.792C85.0301 18.3467 85.4781 18.8053 86.0968 19.168C86.7154 19.5307 87.5368 19.712 88.5608 19.712C89.7768 19.712 90.7048 19.52 91.3448 19.136C91.9848 18.752 92.3048 18.2293 92.3048 17.568C92.3048 17.0987 92.1341 16.7147 91.7928 16.416C91.4728 16.1173 90.9608 15.8507 90.2568 15.616C89.5528 15.3813 88.5074 15.1147 87.1208 14.816C84.5608 14.2827 82.6408 13.504 81.3608 12.48C80.1021 11.4347 79.4728 9.952 79.4728 8.032C79.4728 6.73067 79.8354 5.568 80.5608 4.544C81.2861 3.52 82.3208 2.72 83.6648 2.144C85.0088 1.568 86.5768 1.28 88.3688 1.28C90.2248 1.28 91.8354 1.6 93.2008 2.24C94.5661 2.88 95.6008 3.69067 96.3048 4.672C97.0301 5.632 97.4141 6.58133 97.4568 7.52C97.4568 7.712 97.3928 7.872 97.2648 8C97.1368 8.128 96.9768 8.192 96.7847 8.192H92.5608C92.3048 8.192 92.0914 8.14933 91.9208 8.064C91.7714 7.97867 91.6328 7.84 91.5048 7.648C91.3768 7.15733 91.0248 6.74133 90.4488 6.4C89.8941 6.05867 89.2008 5.888 88.3688 5.888C87.4088 5.888 86.6728 6.05867 86.1608 6.4C85.6488 6.74133 85.3928 7.24267 85.3928 7.904C85.3928 8.352 85.5314 8.72533 85.8088 9.024C86.1074 9.32267 86.5768 9.6 87.2168 9.856C87.8781 10.0907 88.8168 10.336 90.0328 10.592C92.0168 10.9547 93.5954 11.4133 94.7688 11.968C95.9634 12.5013 96.8381 13.2053 97.3928 14.08C97.9474 14.9333 98.2248 16.0107 98.2248 17.312C98.2248 18.7413 97.8088 19.9893 96.9768 21.056C96.1661 22.1013 95.0248 22.912 93.5528 23.488C92.1021 24.0427 90.4381 24.32 88.5608 24.32ZM108.724 24.32C106.313 24.32 104.361 23.68 102.868 22.4C101.374 21.0987 100.574 19.296 100.468 16.992L100.436 15.712L100.468 14.4C100.553 12.096 101.342 10.2933 102.836 8.992C104.35 7.69067 106.313 7.04 108.724 7.04C110.537 7.04 112.062 7.37067 113.3 8.032C114.558 8.672 115.486 9.45067 116.083 10.368C116.702 11.264 117.033 12.0853 117.076 12.832C117.097 13.0453 117.022 13.2373 116.852 13.408C116.702 13.5573 116.51 13.632 116.276 13.632H112.212C111.977 13.632 111.796 13.5787 111.668 13.472C111.54 13.3653 111.422 13.2053 111.316 12.992C111.06 12.3307 110.729 11.8613 110.324 11.584C109.94 11.3067 109.438 11.168 108.82 11.168C107.07 11.168 106.164 12.2987 106.1 14.56L106.068 15.776L106.1 16.832C106.142 17.984 106.388 18.8373 106.836 19.392C107.305 19.9253 107.966 20.192 108.82 20.192C109.481 20.192 110.004 20.0533 110.388 19.776C110.772 19.4987 111.081 19.0293 111.316 18.368C111.422 18.1547 111.54 17.9947 111.668 17.888C111.796 17.7813 111.977 17.728 112.212 17.728H116.276C116.489 17.728 116.67 17.8027 116.819 17.952C116.99 18.08 117.076 18.2507 117.076 18.464C117.076 19.1467 116.777 19.9467 116.18 20.864C115.604 21.7813 114.686 22.592 113.428 23.296C112.169 23.9787 110.601 24.32 108.724 24.32ZM120.751 24C120.537 24 120.345 23.9253 120.174 23.776C120.025 23.6053 119.951 23.4133 119.951 23.2V2.08C119.951 1.84533 120.025 1.65333 120.174 1.504C120.345 1.35467 120.537 1.28 120.751 1.28H124.847C125.081 1.28 125.273 1.35467 125.423 1.504C125.572 1.65333 125.647 1.84533 125.647 2.08V9.216C126.927 7.76533 128.612 7.04 130.703 7.04C131.94 7.04 133.039 7.31733 133.999 7.872C134.98 8.42667 135.748 9.248 136.303 10.336C136.857 11.424 137.135 12.736 137.135 14.272V23.2C137.135 23.4133 137.06 23.6053 136.911 23.776C136.761 23.9253 136.569 24 136.335 24H132.207C131.993 24 131.801 23.9253 131.631 23.776C131.481 23.6053 131.407 23.4133 131.407 23.2V14.464C131.407 13.4613 131.161 12.6933 130.671 12.16C130.201 11.6053 129.508 11.328 128.591 11.328C127.673 11.328 126.948 11.6053 126.415 12.16C125.903 12.6933 125.647 13.4613 125.647 14.464V23.2C125.647 23.4347 125.572 23.6267 125.423 23.776C125.273 23.9253 125.081 24 124.847 24H120.751ZM148.635 24.32C145.99 24.32 143.952 23.6907 142.523 22.432C141.094 21.1733 140.315 19.4027 140.187 17.12C140.166 16.8427 140.155 16.3627 140.155 15.68C140.155 14.9973 140.166 14.5173 140.187 14.24C140.315 11.9787 141.115 10.2187 142.587 8.96C144.059 7.68 146.075 7.04 148.635 7.04C151.216 7.04 153.243 7.68 154.715 8.96C156.187 10.2187 156.987 11.9787 157.115 14.24C157.136 14.5173 157.147 14.9973 157.147 15.68C157.147 16.3627 157.136 16.8427 157.115 17.12C156.987 19.4027 156.208 21.1733 154.779 22.432C153.35 23.6907 151.302 24.32 148.635 24.32ZM148.635 20.416C149.574 20.416 150.267 20.1387 150.715 19.584C151.163 19.008 151.419 18.1333 151.483 16.96C151.504 16.7467 151.515 16.32 151.515 15.68C151.515 15.04 151.504 14.6133 151.483 14.4C151.419 13.248 151.152 12.384 150.683 11.808C150.235 11.232 149.552 10.944 148.635 10.944C146.864 10.944 145.926 12.096 145.819 14.4L145.787 15.68L145.819 16.96C145.862 18.1333 146.107 19.008 146.555 19.584C147.024 20.1387 147.718 20.416 148.635 20.416ZM168.198 24.32C165.552 24.32 163.515 23.6907 162.086 22.432C160.656 21.1733 159.878 19.4027 159.75 17.12C159.728 16.8427 159.718 16.3627 159.718 15.68C159.718 14.9973 159.728 14.5173 159.75 14.24C159.878 11.9787 160.678 10.2187 162.15 8.96C163.622 7.68 165.638 7.04 168.198 7.04C170.779 7.04 172.806 7.68 174.278 8.96C175.75 10.2187 176.55 11.9787 176.678 14.24C176.699 14.5173 176.71 14.9973 176.71 15.68C176.71 16.3627 176.699 16.8427 176.678 17.12C176.55 19.4027 175.771 21.1733 174.342 22.432C172.912 23.6907 170.864 24.32 168.198 24.32ZM168.198 20.416C169.136 20.416 169.83 20.1387 170.278 19.584C170.726 19.008 170.982 18.1333 171.046 16.96C171.067 16.7467 171.078 16.32 171.078 15.68C171.078 15.04 171.067 14.6133 171.046 14.4C170.982 13.248 170.715 12.384 170.246 11.808C169.798 11.232 169.115 10.944 168.198 10.944C166.427 10.944 165.488 12.096 165.382 14.4L165.35 15.68L165.382 16.96C165.424 18.1333 165.67 19.008 166.118 19.584C166.587 20.1387 167.28 20.416 168.198 20.416ZM180.688 24C180.475 24 180.283 23.9253 180.112 23.776C179.963 23.6053 179.888 23.4133 179.888 23.2V2.08C179.888 1.84533 179.963 1.65333 180.112 1.504C180.283 1.35467 180.475 1.28 180.688 1.28H184.464C184.699 1.28 184.891 1.35467 185.04 1.504C185.189 1.65333 185.264 1.84533 185.264 2.08V23.2C185.264 23.4347 185.189 23.6267 185.04 23.776C184.891 23.9253 184.699 24 184.464 24H180.688Z" fill="white"/>
</svg>
